{
  "accessors": [
    {
      "bufferView": 2,
      "componentType": 5126,
      "count": 1890,
      "max": [
        24.231876373291016,
        29.574352264404297,
        96.232940673828125
      ],
      "min": [
        -24.231876373291016,
        -25.601741790771484,
        41.887962341308594
      ],
      "type": "VEC3"
    },
    {
      "bufferView": 2,
      "byteOffset": 22680,
      "componentType": 5126,
      "count": 1890,
      "max": [
        0.99770736694335938,
        0.98592245578765869,
        0.99998807907104492
      ],
      "min": [
        -0.99770736694335938,
        -1,
        -1
      ],
      "type": "VEC3"
    },
    {
      "bufferView": 3,
      "componentType": 5126,
      "count": 1890,
      "max": [
        1,
        0.99999004602432251,
        0.99987107515335083,
        1
      ],
      "min": [
        -0.99876606464385986,
        -1,
        -0.99255436658859253,
        -1
      ],
      "type": "VEC4"
    },
    {
      "bufferView": 1,
      "componentType": 5126,
      "count": 1890,
      "max": [
        2.5415029525756836,
        2.749190092086792
      ],
      "min": [
        -1.6170259714126587,
        -1.7491910457611084
      ],
      "type": "VEC2"
    },
    {
      "bufferView": 0,
      "componentType": 5125,
      "count": 10614,
      "max": [
        1889
      ],
      "min": [
        0
      ],
      "type": "SCALAR"
    },
    {
      "bufferView": 2,
      "byteOffset": 45360,
      "componentType": 5126,
      "count": 6140,
      "max": [
        23.999998092651367,
        31.700000762939453,
        98.847930908203125
      ],
      "min": [
        -23.999998092651367,
        -25.300003051757812,
        0
      ],
      "type": "VEC3"
    },
    {
      "bufferView": 2,
      "byteOffset": 119040,
      "componentType": 5126,
      "count": 6140,
      "max": [
        1,
        1,
        1
      ],
      "min": [
        -1,
        -1,
        -1
      ],
      "type": "VEC3"
    },
    {
      "bufferView": 3,
      "byteOffset": 30240,
      "componentType": 5126,
      "count": 6140,
      "max": [
        1,
        1,
        1,
        1
      ],
      "min": [
        -1,
        -1,
        -1,
        -1
      ],
      "type": "VEC4"
    },
    {
      "bufferView": 1,
      "byteOffset": 15120,
      "componentType": 5126,
      "count": 6140,
      "max": [
        0.98054599761962891,
        0.99604499340057373
      ],
      "min": [
        0.0039550000801682472,
        0.003949000034481287
      ],
      "type": "VEC2"
    },
    {
      "bufferView": 0,
      "byteOffset": 42456,
      "componentType": 5125,
      "count": 20094,
      "max": [
        6139
      ],
      "min": [
        0
      ],
      "type": "SCALAR"
    }
  ],
  "asset": {
    "extras": {
      "author": "Interiors3D (https://sketchfab.com/Interiors3D)",
      "license": "CC-BY-4.0 (http://creativecommons.org/licenses/by/4.0/)",
      "source": "https://sketchfab.com/3d-models/a39400-4af3c47765af45fd9b0d592a5cb7c7c2",
      "title": "A39400"
    },
    "generator": "Sketchfab-8.48.0",
    "version": "2.0"
  },
  "bufferViews": [
    {
      "buffer": 0,
      "byteLength": 122832,
      "byteOffset": 0,
      "name": "floatBufferViews",
      "target": 34963
    },
    {
      "buffer": 0,
      "byteLength": 64240,
      "byteOffset": 122832,
      "byteStride": 8,
      "name": "floatBufferViews",
      "target": 34962
    },
    {
      "buffer": 0,
      "byteLength": 192720,
      "byteOffset": 187072,
      "byteStride": 12,
      "name": "floatBufferViews",
      "target": 34962
    },
    {
      "buffer": 0,
      "byteLength": 128480,
      "byteOffset": 379792,
      "byteStride": 16,
      "name": "floatBufferViews",
      "target": 34962
    }
  ],
  "buffers": [
    {
      "byteLength": 508272,
      "uri": "scene.bin"
    }
  ],
  "images": [
    {
      "uri": "textures/Bruges.black_baseColor.jpeg"
    },
    {
      "uri": "textures/Bruges.black_metallicRoughness.png"
    },
    {
      "uri": "textures/Bruges.black_normal.png"
    },
    {
      "uri": "textures/Fabric_baseColor.jpeg"
    },
    {
      "uri": "textures/Fabric_metallicRoughness.png"
    },
    {
      "uri": "textures/Fabric_normal.png"
    }
  ],
  "materials": [
    {
      "doubleSided": true,
      "name": "Bruges.black",
      "normalTexture": {
        "index": 2,
        "scale": 0.59999999999999998,
        "texCoord": 0
      },
      "pbrMetallicRoughness": {
        "baseColorFactor": [
          1,
          1,
          1,
          1
        ],
        "baseColorTexture": {
          "index": 0,
          "texCoord": 0
        },
        "metallicFactor": 0,
        "metallicRoughnessTexture": {
          "index": 1,
          "texCoord": 0
        },
        "roughnessFactor": 1
      }
    },
    {
      "doubleSided": true,
      "name": "Fabric",
      "normalTexture": {
        "index": 5,
        "scale": 1,
        "texCoord": 0
      },
      "pbrMetallicRoughness": {
        "baseColorFactor": [
          1,
          1,
          1,
          1
        ],
        "baseColorTexture": {
          "index": 3,
          "texCoord": 0
        },
        "metallicFactor": 0,
        "metallicRoughnessTexture": {
          "index": 4,
          "texCoord": 0
        },
        "roughnessFactor": 1
      }
    }
  ],
  "meshes": [
    {
      "primitives": [
        {
          "attributes": {
            "NORMAL": 1,
            "POSITION": 0,
            "TANGENT": 2,
            "TEXCOORD_0": 3
          },
          "indices": 4,
          "material": 1,
          "mode": 4
        }
      ]
    },
    {
      "primitives": [
        {
          "attributes": {
            "NORMAL": 6,
            "POSITION": 5,
            "TANGENT": 7,
            "TEXCOORD_0": 8
          },
          "indices": 9,
          "material": 0,
          "mode": 4
        }
      ]
    }
  ],
  "nodes": [
    {
      "children": [
        1
      ],
      "name": "RootNode (gltf orientation matrix)",
      "rotation": [
        -0.70710678118654746,
        -0,
        -0,
        0.70710678118654757
      ]
    },
    {
      "children": [
        2
      ],
      "name": "RootNode (model correction matrix)"
    },
    {
      "children": [
        3,
        4
      ],
      "name": "W11 - A39400 - Sketchfab - mesh.black.obj.cleaner.materialmerger.gles"
    },
    {
      "mesh": 0,
      "name": ""
    },
    {
      "mesh": 1,
      "name": ""
    }
  ],
  "samplers": [
    {
      "magFilter": 9729,
      "minFilter": 9987,
      "wrapS": 10497,
      "wrapT": 10497
    }
  ],
  "scene": 0,
  "scenes": [
    {
      "name": "OSG_Scene",
      "nodes": [
        0
      ]
    }
  ],
  "textures": [
    {
      "sampler": 0,
      "source": 0
    },
    {
      "sampler": 0,
      "source": 1
    },
    {
      "sampler": 0,
      "source": 2
    },
    {
      "sampler": 0,
      "source": 3
    },
    {
      "sampler": 0,
      "source": 4
    },
    {
      "sampler": 0,
      "source": 5
    }
  ]
}

